<svg width="36" height="36" viewBox="0 0 36 36" fill="none" xmlns="http://www.w3.org/2000/svg">
<path d="M18 4.5C25.4558 4.5 31.5 10.5442 31.5 18C31.5 25.4558 25.4558 31.5 18 31.5C10.5442 31.5 4.5 25.4558 4.5 18C4.5 10.5442 10.5442 4.5 18 4.5ZM18 9.5C17.4823 9.5 17.0562 9.89333 17.0049 10.3975L17 10.5V17H10.5C9.94772 17 9.5 17.4477 9.5 18C9.5 18.5523 9.94772 19 10.5 19H17V25.5C17 26.0523 17.4477 26.5 18 26.5C18.5523 26.5 19 26.0523 19 25.5V19H25.5C26.0523 19 26.5 18.5523 26.5 18C26.5 17.4477 26.0523 17 25.5 17H19V10.5L18.9951 10.3975C18.9438 9.89333 18.5177 9.5 18 9.5Z" fill="#757575"/>
</svg>
