<svg width="40" height="40" viewBox="0 0 40 40" fill="none" xmlns="http://www.w3.org/2000/svg">
<path d="M10.8374 11.6255C10.9394 10.6051 10.9904 10.0949 11.0835 9.65987C11.8038 6.29291 14.5977 3.76453 18.0196 3.38281C18.4617 3.3335 18.9744 3.3335 19.9999 3.3335C21.0254 3.3335 21.5382 3.3335 21.9803 3.38281C25.4022 3.76453 28.196 6.29291 28.9163 9.65987C29.0094 10.0949 29.0604 10.6051 29.1625 11.6255L29.6401 16.4024C29.8007 18.008 29.881 18.8107 30.1155 19.5732C30.1867 19.8046 30.2684 20.0327 30.3603 20.2567C30.663 20.9948 31.1105 21.666 32.0056 23.0086L34.5937 26.8908C35.5061 28.2595 35.9624 28.9439 35.6797 29.472C35.3971 30.0002 34.5746 30.0002 32.9296 30.0002H7.07028C5.42526 30.0002 4.60275 30.0002 4.32009 29.472C4.03744 28.9439 4.49369 28.2595 5.40619 26.8908L7.99427 23.0086C8.88933 21.666 9.33686 20.9948 9.63958 20.2567C9.73145 20.0327 9.8131 19.8046 9.88429 19.5732C10.1189 18.8107 10.1991 18.008 10.3597 16.4024L10.8374 11.6255Z" fill="#355749"/>
<path d="M16.7802 34.3823C16.9701 34.5595 17.3886 34.7161 17.9707 34.8278C18.5529 34.9395 19.2661 35 19.9999 35C20.7337 35 21.447 34.9395 22.0291 34.8278C22.6113 34.7161 23.0298 34.5595 23.2197 34.3823" stroke="#355749" stroke-width="2" stroke-linecap="round"/>
</svg>
