<svg width="36" height="36" viewBox="0 0 36 36" fill="none" xmlns="http://www.w3.org/2000/svg">
<path d="M18 4.5C25.4558 4.5 31.5 10.5442 31.5 18C31.5 25.4558 25.4558 31.5 18 31.5C10.5442 31.5 4.5 25.4558 4.5 18C4.5 10.5442 10.5442 4.5 18 4.5ZM12.6309 11.2236C12.2381 10.9037 11.6589 10.927 11.293 11.293C10.927 11.6589 10.9037 12.2381 11.2236 12.6309L11.293 12.707L16.5859 18L11.293 23.293C10.9024 23.6835 10.9024 24.3165 11.293 24.707C11.6835 25.0976 12.3165 25.0976 12.707 24.707L18 19.4141L23.293 24.707C23.6835 25.0976 24.3165 25.0976 24.707 24.707C25.0976 24.3165 25.0976 23.6835 24.707 23.293L19.4141 18L24.707 12.707L24.7764 12.6309C25.0963 12.2381 25.073 11.6589 24.707 11.293C24.3411 10.927 23.7619 10.9037 23.3691 11.2236L23.293 11.293L18 16.5859L12.707 11.293L12.6309 11.2236Z" fill="#EF4444"/>
</svg>
