<svg width="32" height="32" viewBox="0 0 32 32" fill="none" xmlns="http://www.w3.org/2000/svg">
<path fill-rule="evenodd" clip-rule="evenodd" d="M28.8002 16C28.8002 23.0693 23.0694 28.8 16.0002 28.8C8.93095 28.8 3.2002 23.0693 3.2002 16C3.2002 8.93077 8.93095 3.20001 16.0002 3.20001C23.0694 3.20001 28.8002 8.93077 28.8002 16ZM14.3031 11.1029C13.8345 11.5715 13.0747 11.5715 12.6061 11.1029C12.1375 10.6343 12.1375 9.87449 12.6061 9.40586C14.4806 7.53134 17.5198 7.53134 19.3943 9.40586C21.2688 11.2804 21.2688 14.3196 19.3943 16.1941C18.7663 16.8221 18.0048 17.241 17.2002 17.4481V18C17.2002 18.6627 16.6629 19.2 16.0002 19.2C15.3375 19.2 14.8002 18.6627 14.8002 18V17.2C14.8002 16.0475 15.7121 15.3252 16.5303 15.1412C16.9574 15.0451 17.3628 14.8315 17.6973 14.497C18.6345 13.5598 18.6345 12.0402 17.6973 11.1029C16.76 10.1657 15.2404 10.1657 14.3031 11.1029ZM16.0002 24C16.8838 24 17.6002 23.2837 17.6002 22.4C17.6002 21.5164 16.8838 20.8 16.0002 20.8C15.1165 20.8 14.4002 21.5164 14.4002 22.4C14.4002 23.2837 15.1165 24 16.0002 24Z" fill="#F2C94C"/>
</svg>
