<svg width="18" height="18" viewBox="0 0 18 18" fill="none" xmlns="http://www.w3.org/2000/svg">
<path d="M8.61454 6.38503C9.3899 7.58267 10.4173 8.60296 11.6282 9.37136L6.85673 14.1438C6.43167 14.5689 6.21841 14.7814 5.95731 14.9212C5.69637 15.0607 5.40171 15.1198 4.81278 15.2376L2.98563 15.6028C2.65302 15.6693 2.48649 15.7023 2.39188 15.6077C2.29759 15.5131 2.33035 15.347 2.39677 15.0149L2.76298 13.1878C2.88087 12.5983 2.93965 12.3034 3.07938 12.0423C3.21912 11.7812 3.43173 11.5688 3.85673 11.1438L8.61454 6.38503ZM11.4046 3.5989C12.1674 2.90551 13.3322 2.90551 14.095 3.5989C14.1303 3.63094 14.1707 3.67066 14.2503 3.75027C14.3297 3.82971 14.3696 3.86935 14.4016 3.90456C15.095 4.66733 15.0949 5.83217 14.4016 6.59499C14.3696 6.63025 14.3299 6.67064 14.2503 6.75026L13.0872 7.91237C11.8249 7.20893 10.7819 6.17627 10.0686 4.93093L11.2503 3.75027C11.3297 3.67088 11.3694 3.63089 11.4046 3.5989Z" fill="white"/>
</svg>
