 <svg
            width="14"
            height="11"
            viewBox="0 0 14 11"
            fill="none"
            xmlns="http://www.w3.org/2000/svg">
            <path
              d="M7.00034 0.833008C9.7651 0.833194 11.594 2.47153 12.6253 3.80664C13.1052 4.42789 13.3453 4.7393 13.3285 5.44824C13.3115 6.15692 13.0402 6.47506 12.4994 7.11035C11.3506 8.45948 9.41936 10.1668 7.00034 10.167C4.58109 10.167 2.64915 8.45957 1.50034 7.11035C0.959472 6.47506 0.688209 6.15692 0.671242 5.44824C0.654363 4.7393 0.894514 4.42789 1.37437 3.80664C2.40573 2.47145 4.23531 0.833008 7.00034 0.833008ZM7.00034 2.83301C5.52758 2.83301 4.33335 4.02724 4.33335 5.5C4.33335 6.97276 5.52758 8.16699 7.00034 8.16699C8.47288 8.16674 9.66636 6.9726 9.66636 5.5C9.66636 4.0274 8.47288 2.83326 7.00034 2.83301Z"
              fill="#757575"
            />
          </svg>