<svg width="16" height="14" viewBox="0 0 16 14" fill="none" xmlns="http://www.w3.org/2000/svg">
<path d="M2.96696 7.77198L7.60203 12.1261C7.65387 12.1748 7.67979 12.1992 7.70447 12.2173C7.88034 12.346 8.11934 12.346 8.2952 12.2173C8.31988 12.1992 8.3458 12.1748 8.39765 12.1261L13.0327 7.77198C14.3368 6.5469 14.4952 4.5309 13.3984 3.11722L13.1921 2.8514C11.88 1.16022 9.24626 1.44385 8.32428 3.3756C8.19405 3.64848 7.80563 3.64848 7.67539 3.3756C6.75342 1.44385 4.11965 1.16022 2.80753 2.8514L2.6013 3.11722C1.50447 4.5309 1.66284 6.5469 2.96696 7.77198Z" fill="#757575" stroke="#757575" stroke-width="2"/>
</svg>
