<svg width="36" height="36" viewBox="0 0 36 36" fill="none" xmlns="http://www.w3.org/2000/svg">
<path d="M27 30L26.2929 30.7071L27 31.4142L27.7071 30.7071L27 30ZM19.5 6.5C18.9477 6.5 18.5 6.94772 18.5 7.5C18.5 8.05228 18.9477 8.5 19.5 8.5L19.5 7.5L19.5 6.5ZM21 24L20.2929 24.7071L26.2929 30.7071L27 30L27.7071 29.2929L21.7071 23.2929L21 24ZM27 30L27.7071 30.7071L33.7071 24.7071L33 24L32.2929 23.2929L26.2929 29.2929L27 30ZM27 30L28 30L28 11.5L27 11.5L26 11.5L26 30L27 30ZM23 7.5L23 6.5L19.5 6.5L19.5 7.5L19.5 8.5L23 8.5L23 7.5ZM27 11.5L28 11.5C28 8.73858 25.7614 6.5 23 6.5L23 7.5L23 8.5C24.6569 8.5 26 9.84315 26 11.5L27 11.5Z" fill="#33363F"/>
<path d="M9 6L9.70711 5.29289L9 4.58579L8.29289 5.29289L9 6ZM16.5 29.5C17.0523 29.5 17.5 29.0523 17.5 28.5C17.5 27.9477 17.0523 27.5 16.5 27.5L16.5 28.5L16.5 29.5ZM15 12L15.7071 11.2929L9.70711 5.29289L9 6L8.29289 6.70711L14.2929 12.7071L15 12ZM9 6L8.29289 5.29289L2.29289 11.2929L3 12L3.70711 12.7071L9.70711 6.70711L9 6ZM9 6L8 6L8 24.5L9 24.5L10 24.5L10 6L9 6ZM13 28.5L13 29.5L16.5 29.5L16.5 28.5L16.5 27.5L13 27.5L13 28.5ZM9 24.5L8 24.5C8 27.2614 10.2386 29.5 13 29.5L13 28.5L13 27.5C11.3431 27.5 10 26.1569 10 24.5L9 24.5Z" fill="#33363F"/>
</svg>
