<svg width="32" height="32" viewBox="0 0 32 32" fill="none" xmlns="http://www.w3.org/2000/svg">
<path d="M22.1198 10.1067L13.3332 18.8934L8.5465 14.12L6.6665 16L13.3332 22.6667L23.9998 12L22.1198 10.1067ZM15.9998 2.66669C8.63984 2.66669 2.6665 8.64002 2.6665 16C2.6665 23.36 8.63984 29.3334 15.9998 29.3334C23.3598 29.3334 29.3332 23.36 29.3332 16C29.3332 8.64002 23.3598 2.66669 15.9998 2.66669ZM15.9998 26.6667C10.1065 26.6667 5.33317 21.8934 5.33317 16C5.33317 10.1067 10.1065 5.33335 15.9998 5.33335C21.8932 5.33335 26.6665 10.1067 26.6665 16C26.6665 21.8934 21.8932 26.6667 15.9998 26.6667Z" fill="#2E7D32"/>
</svg>
