<svg width="142" height="35" viewBox="0 0 142 35" fill="none" xmlns="http://www.w3.org/2000/svg">
<path d="M134.493 3.22935C130.93 3.95035 130.386 4.23668 130.265 5.41891C130.167 6.37596 130.512 6.92264 131.508 7.2507C132.278 7.5559 132.804 8.00713 132.718 8.2829C132.627 8.61497 129.015 12.5744 125.338 17.2085C121.723 21.792 116.301 28.0113 117.097 27.2202C117.339 28.2116 119.137 29.8861 120.134 29.6455C120.666 29.4717 125.652 23.5797 129.66 19.1693C133.258 14.7547 136.004 11.5046 136.409 11.5046C136.409 11.2175 137.571 11.7304 137.848 12.384C138.35 13.6291 140.172 14.2681 140.83 13.4245C141.296 12.7889 140.93 4.04977 140.394 3.14245C139.744 2.2237 139.461 2.19513 134.493 3.22935Z" fill="#355749"/>
<path d="M90.1896 2.4827C87.7073 4.26444 90.4654 8.23909 93.0856 6.66293C94.7404 5.56648 94.9473 3.57915 93.4993 2.4827C92.8098 2.003 92.0513 1.59183 91.8444 1.59183C91.6376 1.59183 90.8791 2.003 90.1896 2.4827Z" fill="#355749"/>
<path d="M49.5074 4.40118C48.5421 5.56617 47.7146 7.07379 47.7146 7.82761C47.7146 8.64995 47.232 9.12965 46.3356 9.12965C45.2324 9.12965 44.9565 9.60935 44.9565 11.5281C44.9565 13.4469 45.2324 13.9266 46.3356 13.9266C47.6457 13.9266 47.7146 14.4063 47.7146 20.7795V27.6323H50.128H52.5413V20.7795V13.9266H54.6098C56.5405 13.9266 56.6784 13.7211 56.6784 11.5281C56.6784 9.33523 56.5405 9.12965 54.5409 9.12965C51.6449 9.12965 52.0586 7.00526 55.1615 6.04587C56.8163 5.56617 57.3679 5.01794 57.3679 3.85296C57.3679 2.41386 57.0232 2.2768 54.334 2.2768C51.7828 2.2768 51.0243 2.61945 49.5074 4.40118Z" fill="#355749"/>
<path d="M0.275809 12.0086C0.551617 22.1508 1.37904 24.7549 4.96455 26.6052C8.0674 28.1813 13.9973 27.9758 16.3417 26.1255C19.4445 23.727 20.134 21.0544 20.134 11.5289V2.96288H17.7207H15.3074V11.7345C15.3074 20.0265 15.2384 20.6432 13.7215 22.0138C11.7219 23.8641 8.82588 23.9326 7.03312 22.1508C5.79198 20.9173 5.65408 19.8894 5.65408 11.8716V2.96288H2.82704H0L0.275809 12.0086Z" fill="#355749"/>
<path d="M80.6057 3.44178C80.3299 3.64737 80.123 9.19817 80.123 15.7769V27.6323H82.5364H84.9497V15.2972V2.96208H83.019C81.9158 2.96208 80.8126 3.16767 80.6057 3.44178Z" fill="#355749"/>
<path d="M24.0642 9.61051C23.7884 9.81609 23.5815 15.5725 23.5815 22.2883V34.4863H25.9949H28.4082V29.9635V25.5091L29.9251 26.537C31.7868 27.8391 36.4066 27.9076 38.6131 26.6741C44.3361 23.5218 44.2672 13.9278 38.5442 10.5014C35.924 8.85669 33.1659 8.78816 30.4768 10.1587C28.615 11.1181 28.4082 11.1181 28.4082 10.1587C28.4082 9.13081 24.9606 8.65111 24.0642 9.61051ZM36.6824 14.6131C38.5442 16.4634 38.5442 20.7806 36.6824 22.4939C34.8207 24.2071 31.1663 24.0015 29.6493 22.0827C25.6501 17.2172 32.2695 10.2273 36.6824 14.6131Z" fill="#355749"/>
<path d="M63.0909 10.5002C59.8501 12.419 58.4711 14.9546 58.5401 18.7236C58.609 24.5485 62.0566 27.6323 68.4692 27.6323C71.641 27.6323 72.2615 27.3582 74.6749 24.9597C77.0882 22.6297 77.364 21.9445 77.364 18.9977C77.364 16.8734 76.8813 14.8175 75.9849 13.3784C73.5027 9.33523 67.297 7.89614 63.0909 10.5002ZM70.9514 14.2693C74.0543 16.4622 73.4337 22.2186 69.9172 23.315C67.0212 24.2744 65.0216 23.5891 63.9183 21.4648C62.5393 18.7922 62.6082 17.216 64.332 15.0231C65.9179 12.9672 68.676 12.6931 70.9514 14.2693Z" fill="#355749"/>
<path d="M89.7759 18.381V27.6323H91.8444H93.913V18.381V9.12965H91.8444H89.7759V18.381Z" fill="#355749"/>
<path d="M102.532 9.95199C97.7051 12.6246 95.8434 17.0789 97.7051 21.8759C99.222 25.7821 102.187 27.6323 106.945 27.6323C109.979 27.6323 110.806 27.2897 113.012 25.3709C115.15 23.3836 115.564 22.5612 115.771 19.3404C115.977 16.5307 115.771 15.1601 114.736 13.5155C112.392 9.81493 106.048 7.96466 102.532 9.95199ZM109.013 13.9266C111.151 15.0231 112.185 18.381 111.151 20.7795C109.772 24.0688 105.014 24.7541 102.739 22.013C99.0841 17.7642 104.118 11.3226 109.013 13.9266Z" fill="#355749"/>
</svg>
